<?xml version="1.0" encoding="utf-8"?>
<!-- Generator: Adobe Illustrator 24.2.1, SVG Export Plug-In . SVG Version: 6.00 Build 0)  -->
<svg version="1.1" id="OBJECTS" xmlns="http://www.w3.org/2000/svg" xmlns:xlink="http://www.w3.org/1999/xlink" x="0px" y="0px"
	 viewBox="0 0 380 380" style="enable-background:new 0 0 380 380;" xml:space="preserve">
<style type="text/css">
	.st0{clip-path:url(#SVGID_2_);fill:#F4AE1E;}
	.st1{clip-path:url(#SVGID_4_);fill:#F4AE1E;}
	.st2{clip-path:url(#SVGID_6_);fill:#F4AF1D;}
	.st3{clip-path:url(#SVGID_8_);fill:#F4B01D;}
	.st4{clip-path:url(#SVGID_10_);fill:#F5B11C;}
	.st5{clip-path:url(#SVGID_12_);fill:#F5B21C;}
	.st6{clip-path:url(#SVGID_14_);fill:#F5B31B;}
	.st7{clip-path:url(#SVGID_16_);fill:#F5B41A;}
	.st8{clip-path:url(#SVGID_18_);fill:#F6B51A;}
	.st9{clip-path:url(#SVGID_20_);fill:#F6B619;}
	.st10{clip-path:url(#SVGID_22_);fill:#F6B719;}
	.st11{clip-path:url(#SVGID_24_);fill:#F6B818;}
	.st12{clip-path:url(#SVGID_26_);fill:#F6B918;}
	.st13{clip-path:url(#SVGID_28_);fill:#F7BA17;}
	.st14{clip-path:url(#SVGID_30_);fill:#F7BB16;}
	.st15{clip-path:url(#SVGID_32_);fill:#F7BC16;}
	.st16{clip-path:url(#SVGID_34_);fill:#F7BD15;}
	.st17{clip-path:url(#SVGID_36_);fill:#F7BE15;}
	.st18{clip-path:url(#SVGID_38_);fill:#F8BF14;}
	.st19{clip-path:url(#SVGID_40_);fill:#F8C013;}
	.st20{clip-path:url(#SVGID_42_);fill:#F8C113;}
	.st21{clip-path:url(#SVGID_44_);fill:#F8C212;}
	.st22{clip-path:url(#SVGID_46_);fill:#F9C312;}
	.st23{clip-path:url(#SVGID_48_);fill:#F9C411;}
	.st24{clip-path:url(#SVGID_50_);fill:#F9C510;}
	.st25{clip-path:url(#SVGID_52_);fill:#F9C610;}
	.st26{clip-path:url(#SVGID_54_);fill:#F9C70F;}
	.st27{clip-path:url(#SVGID_56_);fill:#FAC90F;}
	.st28{clip-path:url(#SVGID_58_);fill:#FACA0E;}
	.st29{clip-path:url(#SVGID_60_);fill:#FACB0E;}
	.st30{clip-path:url(#SVGID_62_);fill:#FACC0D;}
	.st31{clip-path:url(#SVGID_64_);fill:#FACD0C;}
	.st32{clip-path:url(#SVGID_66_);fill:#FBCE0C;}
	.st33{clip-path:url(#SVGID_68_);fill:#FBCF0B;}
	.st34{clip-path:url(#SVGID_70_);fill:#FBD00B;}
	.st35{clip-path:url(#SVGID_72_);fill:#FBD10A;}
	.st36{clip-path:url(#SVGID_74_);fill:#FCD209;}
	.st37{clip-path:url(#SVGID_76_);fill:#FCD309;}
	.st38{clip-path:url(#SVGID_78_);fill:#FCD408;}
	.st39{clip-path:url(#SVGID_80_);fill:#FCD508;}
	.st40{clip-path:url(#SVGID_82_);fill:#FCD607;}
	.st41{clip-path:url(#SVGID_84_);fill:#FDD706;}
	.st42{clip-path:url(#SVGID_86_);fill:#FDD806;}
	.st43{clip-path:url(#SVGID_88_);fill:#FDD905;}
	.st44{clip-path:url(#SVGID_90_);fill:#FDDA05;}
	.st45{clip-path:url(#SVGID_92_);fill:#FDDB04;}
	.st46{clip-path:url(#SVGID_94_);fill:#FEDC04;}
	.st47{clip-path:url(#SVGID_96_);fill:#FEDD03;}
	.st48{clip-path:url(#SVGID_98_);fill:#FEDE02;}
	.st49{clip-path:url(#SVGID_100_);fill:#FEDF02;}
	.st50{clip-path:url(#SVGID_102_);fill:#FFE001;}
	.st51{clip-path:url(#SVGID_104_);fill:#FFE101;}
	.st52{clip-path:url(#SVGID_106_);fill:#FFE200;}
	.st53{fill:#F09A21;}
	.st54{fill:#603126;}
	.st55{opacity:0.5;}
	.st56{fill:#FCF6BD;}
	.st57{fill:#009FE3;}
	.st58{fill:#007BAF;}
	.st59{fill:#73CAF0;}
</style>
<g>
	<g>
		<g>
			<defs>
				<circle id="SVGID_1_" cx="190" cy="190" r="183.5"/>
			</defs>
			<clipPath id="SVGID_2_">
				<use xlink:href="#SVGID_1_"  style="overflow:visible;"/>
			</clipPath>
			<rect x="6.5" y="6.5" class="st0" width="367.1" height="367.1"/>
		</g>
		<g>
			<defs>
				<circle id="SVGID_3_" cx="190" cy="190" r="183.5"/>
			</defs>
			<clipPath id="SVGID_4_">
				<use xlink:href="#SVGID_3_"  style="overflow:visible;"/>
			</clipPath>
			<circle class="st1" cx="190" cy="190" r="183.5"/>
		</g>
		<g>
			<defs>
				<circle id="SVGID_5_" cx="190" cy="190" r="183.5"/>
			</defs>
			<clipPath id="SVGID_6_">
				<use xlink:href="#SVGID_5_"  style="overflow:visible;"/>
			</clipPath>
			<circle class="st2" cx="190" cy="190" r="180"/>
		</g>
		<g>
			<defs>
				<circle id="SVGID_7_" cx="190" cy="190" r="183.5"/>
			</defs>
			<clipPath id="SVGID_8_">
				<use xlink:href="#SVGID_7_"  style="overflow:visible;"/>
			</clipPath>
			<circle class="st3" cx="190" cy="190" r="176.5"/>
		</g>
		<g>
			<defs>
				<circle id="SVGID_9_" cx="190" cy="190" r="183.5"/>
			</defs>
			<clipPath id="SVGID_10_">
				<use xlink:href="#SVGID_9_"  style="overflow:visible;"/>
			</clipPath>
			<circle class="st4" cx="190" cy="190" r="173"/>
		</g>
		<g>
			<defs>
				<circle id="SVGID_11_" cx="190" cy="190" r="183.5"/>
			</defs>
			<clipPath id="SVGID_12_">
				<use xlink:href="#SVGID_11_"  style="overflow:visible;"/>
			</clipPath>
			<circle class="st5" cx="190" cy="190" r="169.4"/>
		</g>
		<g>
			<defs>
				<circle id="SVGID_13_" cx="190" cy="190" r="183.5"/>
			</defs>
			<clipPath id="SVGID_14_">
				<use xlink:href="#SVGID_13_"  style="overflow:visible;"/>
			</clipPath>
			<circle class="st6" cx="190" cy="190" r="165.9"/>
		</g>
		<g>
			<defs>
				<circle id="SVGID_15_" cx="190" cy="190" r="183.5"/>
			</defs>
			<clipPath id="SVGID_16_">
				<use xlink:href="#SVGID_15_"  style="overflow:visible;"/>
			</clipPath>
			<circle class="st7" cx="190" cy="190" r="162.4"/>
		</g>
		<g>
			<defs>
				<circle id="SVGID_17_" cx="190" cy="190" r="183.5"/>
			</defs>
			<clipPath id="SVGID_18_">
				<use xlink:href="#SVGID_17_"  style="overflow:visible;"/>
			</clipPath>
			<circle class="st8" cx="190" cy="190" r="158.8"/>
		</g>
		<g>
			<defs>
				<circle id="SVGID_19_" cx="190" cy="190" r="183.5"/>
			</defs>
			<clipPath id="SVGID_20_">
				<use xlink:href="#SVGID_19_"  style="overflow:visible;"/>
			</clipPath>
			<circle class="st9" cx="190" cy="190" r="155.3"/>
		</g>
		<g>
			<defs>
				<circle id="SVGID_21_" cx="190" cy="190" r="183.5"/>
			</defs>
			<clipPath id="SVGID_22_">
				<use xlink:href="#SVGID_21_"  style="overflow:visible;"/>
			</clipPath>
			<circle class="st10" cx="190" cy="190" r="151.8"/>
		</g>
		<g>
			<defs>
				<circle id="SVGID_23_" cx="190" cy="190" r="183.5"/>
			</defs>
			<clipPath id="SVGID_24_">
				<use xlink:href="#SVGID_23_"  style="overflow:visible;"/>
			</clipPath>
			<circle class="st11" cx="190" cy="190" r="148.3"/>
		</g>
		<g>
			<defs>
				<circle id="SVGID_25_" cx="190" cy="190" r="183.5"/>
			</defs>
			<clipPath id="SVGID_26_">
				<use xlink:href="#SVGID_25_"  style="overflow:visible;"/>
			</clipPath>
			<circle class="st12" cx="190" cy="190" r="144.7"/>
		</g>
		<g>
			<defs>
				<circle id="SVGID_27_" cx="190" cy="190" r="183.5"/>
			</defs>
			<clipPath id="SVGID_28_">
				<use xlink:href="#SVGID_27_"  style="overflow:visible;"/>
			</clipPath>
			<circle class="st13" cx="190" cy="190" r="141.2"/>
		</g>
		<g>
			<defs>
				<circle id="SVGID_29_" cx="190" cy="190" r="183.5"/>
			</defs>
			<clipPath id="SVGID_30_">
				<use xlink:href="#SVGID_29_"  style="overflow:visible;"/>
			</clipPath>
			<circle class="st14" cx="190" cy="190" r="137.7"/>
		</g>
		<g>
			<defs>
				<circle id="SVGID_31_" cx="190" cy="190" r="183.5"/>
			</defs>
			<clipPath id="SVGID_32_">
				<use xlink:href="#SVGID_31_"  style="overflow:visible;"/>
			</clipPath>
			<circle class="st15" cx="190" cy="190" r="134.1"/>
		</g>
		<g>
			<defs>
				<circle id="SVGID_33_" cx="190" cy="190" r="183.5"/>
			</defs>
			<clipPath id="SVGID_34_">
				<use xlink:href="#SVGID_33_"  style="overflow:visible;"/>
			</clipPath>
			<circle class="st16" cx="190" cy="190" r="130.6"/>
		</g>
		<g>
			<defs>
				<circle id="SVGID_35_" cx="190" cy="190" r="183.5"/>
			</defs>
			<clipPath id="SVGID_36_">
				<use xlink:href="#SVGID_35_"  style="overflow:visible;"/>
			</clipPath>
			<circle class="st17" cx="190" cy="190" r="127.1"/>
		</g>
		<g>
			<defs>
				<circle id="SVGID_37_" cx="190" cy="190" r="183.5"/>
			</defs>
			<clipPath id="SVGID_38_">
				<use xlink:href="#SVGID_37_"  style="overflow:visible;"/>
			</clipPath>
			<circle class="st18" cx="190" cy="190" r="123.5"/>
		</g>
		<g>
			<defs>
				<circle id="SVGID_39_" cx="190" cy="190" r="183.5"/>
			</defs>
			<clipPath id="SVGID_40_">
				<use xlink:href="#SVGID_39_"  style="overflow:visible;"/>
			</clipPath>
			<circle class="st19" cx="190" cy="190" r="120"/>
		</g>
		<g>
			<defs>
				<circle id="SVGID_41_" cx="190" cy="190" r="183.5"/>
			</defs>
			<clipPath id="SVGID_42_">
				<use xlink:href="#SVGID_41_"  style="overflow:visible;"/>
			</clipPath>
			<circle class="st20" cx="190" cy="190" r="116.5"/>
		</g>
		<g>
			<defs>
				<circle id="SVGID_43_" cx="190" cy="190" r="183.5"/>
			</defs>
			<clipPath id="SVGID_44_">
				<use xlink:href="#SVGID_43_"  style="overflow:visible;"/>
			</clipPath>
			<circle class="st21" cx="190" cy="190" r="113"/>
		</g>
		<g>
			<defs>
				<circle id="SVGID_45_" cx="190" cy="190" r="183.5"/>
			</defs>
			<clipPath id="SVGID_46_">
				<use xlink:href="#SVGID_45_"  style="overflow:visible;"/>
			</clipPath>
			<circle class="st22" cx="190" cy="190" r="109.4"/>
		</g>
		<g>
			<defs>
				<circle id="SVGID_47_" cx="190" cy="190" r="183.5"/>
			</defs>
			<clipPath id="SVGID_48_">
				<use xlink:href="#SVGID_47_"  style="overflow:visible;"/>
			</clipPath>
			<circle class="st23" cx="190" cy="190" r="105.9"/>
		</g>
		<g>
			<defs>
				<circle id="SVGID_49_" cx="190" cy="190" r="183.5"/>
			</defs>
			<clipPath id="SVGID_50_">
				<use xlink:href="#SVGID_49_"  style="overflow:visible;"/>
			</clipPath>
			<circle class="st24" cx="190" cy="190" r="102.4"/>
		</g>
		<g>
			<defs>
				<circle id="SVGID_51_" cx="190" cy="190" r="183.5"/>
			</defs>
			<clipPath id="SVGID_52_">
				<use xlink:href="#SVGID_51_"  style="overflow:visible;"/>
			</clipPath>
			<circle class="st25" cx="190" cy="190" r="98.8"/>
		</g>
		<g>
			<defs>
				<circle id="SVGID_53_" cx="190" cy="190" r="183.5"/>
			</defs>
			<clipPath id="SVGID_54_">
				<use xlink:href="#SVGID_53_"  style="overflow:visible;"/>
			</clipPath>
			<circle class="st26" cx="190" cy="190" r="95.3"/>
		</g>
		<g>
			<defs>
				<circle id="SVGID_55_" cx="190" cy="190" r="183.5"/>
			</defs>
			<clipPath id="SVGID_56_">
				<use xlink:href="#SVGID_55_"  style="overflow:visible;"/>
			</clipPath>
			<circle class="st27" cx="190" cy="190" r="91.8"/>
		</g>
		<g>
			<defs>
				<circle id="SVGID_57_" cx="190" cy="190" r="183.5"/>
			</defs>
			<clipPath id="SVGID_58_">
				<use xlink:href="#SVGID_57_"  style="overflow:visible;"/>
			</clipPath>
			<circle class="st28" cx="190" cy="190" r="88.2"/>
		</g>
		<g>
			<defs>
				<circle id="SVGID_59_" cx="190" cy="190" r="183.5"/>
			</defs>
			<clipPath id="SVGID_60_">
				<use xlink:href="#SVGID_59_"  style="overflow:visible;"/>
			</clipPath>
			<circle class="st29" cx="190" cy="190" r="84.7"/>
		</g>
		<g>
			<defs>
				<circle id="SVGID_61_" cx="190" cy="190" r="183.5"/>
			</defs>
			<clipPath id="SVGID_62_">
				<use xlink:href="#SVGID_61_"  style="overflow:visible;"/>
			</clipPath>
			<circle class="st30" cx="190" cy="190" r="81.2"/>
		</g>
		<g>
			<defs>
				<circle id="SVGID_63_" cx="190" cy="190" r="183.5"/>
			</defs>
			<clipPath id="SVGID_64_">
				<use xlink:href="#SVGID_63_"  style="overflow:visible;"/>
			</clipPath>
			<circle class="st31" cx="190" cy="190" r="77.7"/>
		</g>
		<g>
			<defs>
				<circle id="SVGID_65_" cx="190" cy="190" r="183.5"/>
			</defs>
			<clipPath id="SVGID_66_">
				<use xlink:href="#SVGID_65_"  style="overflow:visible;"/>
			</clipPath>
			<circle class="st32" cx="190" cy="190" r="74.1"/>
		</g>
		<g>
			<defs>
				<circle id="SVGID_67_" cx="190" cy="190" r="183.5"/>
			</defs>
			<clipPath id="SVGID_68_">
				<use xlink:href="#SVGID_67_"  style="overflow:visible;"/>
			</clipPath>
			<circle class="st33" cx="190" cy="190" r="70.6"/>
		</g>
		<g>
			<defs>
				<circle id="SVGID_69_" cx="190" cy="190" r="183.5"/>
			</defs>
			<clipPath id="SVGID_70_">
				<use xlink:href="#SVGID_69_"  style="overflow:visible;"/>
			</clipPath>
			<circle class="st34" cx="190" cy="190" r="67.1"/>
		</g>
		<g>
			<defs>
				<circle id="SVGID_71_" cx="190" cy="190" r="183.5"/>
			</defs>
			<clipPath id="SVGID_72_">
				<use xlink:href="#SVGID_71_"  style="overflow:visible;"/>
			</clipPath>
			<circle class="st35" cx="190" cy="190" r="63.5"/>
		</g>
		<g>
			<defs>
				<circle id="SVGID_73_" cx="190" cy="190" r="183.5"/>
			</defs>
			<clipPath id="SVGID_74_">
				<use xlink:href="#SVGID_73_"  style="overflow:visible;"/>
			</clipPath>
			<circle class="st36" cx="190" cy="190" r="60"/>
		</g>
		<g>
			<defs>
				<circle id="SVGID_75_" cx="190" cy="190" r="183.5"/>
			</defs>
			<clipPath id="SVGID_76_">
				<use xlink:href="#SVGID_75_"  style="overflow:visible;"/>
			</clipPath>
			<circle class="st37" cx="190" cy="190" r="56.5"/>
		</g>
		<g>
			<defs>
				<circle id="SVGID_77_" cx="190" cy="190" r="183.5"/>
			</defs>
			<clipPath id="SVGID_78_">
				<use xlink:href="#SVGID_77_"  style="overflow:visible;"/>
			</clipPath>
			<circle class="st38" cx="190" cy="190" r="52.9"/>
		</g>
		<g>
			<defs>
				<circle id="SVGID_79_" cx="190" cy="190" r="183.5"/>
			</defs>
			<clipPath id="SVGID_80_">
				<use xlink:href="#SVGID_79_"  style="overflow:visible;"/>
			</clipPath>
			<circle class="st39" cx="190" cy="190" r="49.4"/>
		</g>
		<g>
			<defs>
				<circle id="SVGID_81_" cx="190" cy="190" r="183.5"/>
			</defs>
			<clipPath id="SVGID_82_">
				<use xlink:href="#SVGID_81_"  style="overflow:visible;"/>
			</clipPath>
			<circle class="st40" cx="190" cy="190" r="45.9"/>
		</g>
		<g>
			<defs>
				<circle id="SVGID_83_" cx="190" cy="190" r="183.5"/>
			</defs>
			<clipPath id="SVGID_84_">
				<use xlink:href="#SVGID_83_"  style="overflow:visible;"/>
			</clipPath>
			<circle class="st41" cx="190" cy="190" r="42.4"/>
		</g>
		<g>
			<defs>
				<circle id="SVGID_85_" cx="190" cy="190" r="183.5"/>
			</defs>
			<clipPath id="SVGID_86_">
				<use xlink:href="#SVGID_85_"  style="overflow:visible;"/>
			</clipPath>
			<circle class="st42" cx="190" cy="190" r="38.8"/>
		</g>
		<g>
			<defs>
				<circle id="SVGID_87_" cx="190" cy="190" r="183.5"/>
			</defs>
			<clipPath id="SVGID_88_">
				<use xlink:href="#SVGID_87_"  style="overflow:visible;"/>
			</clipPath>
			<circle class="st43" cx="190" cy="190" r="35.3"/>
		</g>
		<g>
			<defs>
				<circle id="SVGID_89_" cx="190" cy="190" r="183.5"/>
			</defs>
			<clipPath id="SVGID_90_">
				<use xlink:href="#SVGID_89_"  style="overflow:visible;"/>
			</clipPath>
			<circle class="st44" cx="190" cy="190" r="31.8"/>
		</g>
		<g>
			<defs>
				<circle id="SVGID_91_" cx="190" cy="190" r="183.5"/>
			</defs>
			<clipPath id="SVGID_92_">
				<use xlink:href="#SVGID_91_"  style="overflow:visible;"/>
			</clipPath>
			<circle class="st45" cx="190" cy="190" r="28.2"/>
		</g>
		<g>
			<defs>
				<circle id="SVGID_93_" cx="190" cy="190" r="183.5"/>
			</defs>
			<clipPath id="SVGID_94_">
				<use xlink:href="#SVGID_93_"  style="overflow:visible;"/>
			</clipPath>
			<circle class="st46" cx="190" cy="190" r="24.7"/>
		</g>
		<g>
			<defs>
				<circle id="SVGID_95_" cx="190" cy="190" r="183.5"/>
			</defs>
			<clipPath id="SVGID_96_">
				<use xlink:href="#SVGID_95_"  style="overflow:visible;"/>
			</clipPath>
			<circle class="st47" cx="190" cy="190" r="21.2"/>
		</g>
		<g>
			<defs>
				<circle id="SVGID_97_" cx="190" cy="190" r="183.5"/>
			</defs>
			<clipPath id="SVGID_98_">
				<use xlink:href="#SVGID_97_"  style="overflow:visible;"/>
			</clipPath>
			<circle class="st48" cx="190" cy="190" r="17.6"/>
		</g>
		<g>
			<defs>
				<circle id="SVGID_99_" cx="190" cy="190" r="183.5"/>
			</defs>
			<clipPath id="SVGID_100_">
				<use xlink:href="#SVGID_99_"  style="overflow:visible;"/>
			</clipPath>
			<circle class="st49" cx="190" cy="190" r="14.1"/>
		</g>
		<g>
			<defs>
				<circle id="SVGID_101_" cx="190" cy="190" r="183.5"/>
			</defs>
			<clipPath id="SVGID_102_">
				<use xlink:href="#SVGID_101_"  style="overflow:visible;"/>
			</clipPath>
			<circle class="st50" cx="190" cy="190" r="10.6"/>
		</g>
		<g>
			<defs>
				<circle id="SVGID_103_" cx="190" cy="190" r="183.5"/>
			</defs>
			<clipPath id="SVGID_104_">
				<use xlink:href="#SVGID_103_"  style="overflow:visible;"/>
			</clipPath>
			<circle class="st51" cx="190" cy="190" r="7.1"/>
		</g>
		<g>
			<defs>
				<circle id="SVGID_105_" cx="190" cy="190" r="183.5"/>
			</defs>
			<clipPath id="SVGID_106_">
				<use xlink:href="#SVGID_105_"  style="overflow:visible;"/>
			</clipPath>
			<circle class="st52" cx="190" cy="190" r="3.5"/>
		</g>
	</g>
</g>
<g>
	<path class="st53" d="M203.6,346.9c-96,0-173.8-77.8-173.8-173.8c0-67.1,38.2-125.4,94-154.3C55.1,45.4,6.5,112,6.5,190
		c0,101.4,82.2,183.5,183.5,183.5c91.7,0,167.6-67.2,181.3-155C351.4,292.5,283.9,346.9,203.6,346.9z"/>
</g>
<g>
	<g>
		<path class="st54" d="M225.4,321.2c-2.1,0-4.1-1.4-4.7-3.6c-4.4-15.7-18.3-21.1-29.8-20.8c-11.8,0.3-26,6.8-29.2,20.6
			c-0.6,2.6-3.2,4.3-5.9,3.6c-2.6-0.6-4.3-3.3-3.6-5.9c3.8-16.2,19.6-27.7,38.5-28.1c0.4,0,0.7,0,1,0c18.6,0,33.6,10.9,38.4,27.9
			c0.7,2.6-0.8,5.3-3.4,6C226.3,321.1,225.8,321.2,225.4,321.2z"/>
	</g>
	<g>
		<path class="st54" d="M267.7,216.6c0,15.1-8.7,27.4-19.3,27.4c-10.7,0-19.3-12.3-19.3-27.4s8.7-27.4,19.3-27.4
			C259,189.2,267.7,201.4,267.7,216.6z"/>
	</g>
	<g>
		<ellipse class="st54" cx="122.3" cy="216.6" rx="19.3" ry="27.4"/>
	</g>
	<g>
		<path class="st54" d="M90.5,179.4c-0.6,0-1.3-0.1-1.9-0.4c-2.5-1-3.7-3.9-2.7-6.4c5.6-13.6,26.3-24,45.5-17.6
			c2.6,0.9,4,3.6,3.1,6.2c-0.9,2.6-3.6,4-6.2,3.1c-15-5-30,4-33.4,12.1C94.3,178.3,92.4,179.4,90.5,179.4z"/>
	</g>
	<g>
		<path class="st54" d="M274.7,179.4c-1.9,0-3.7-1.1-4.5-3c-3.4-8.1-18.4-17.1-33.4-12.1c-2.6,0.9-5.3-0.5-6.2-3.1s0.5-5.3,3.1-6.2
			c19.2-6.4,39.9,4,45.5,17.6c1,2.5-0.2,5.4-2.7,6.4C275.9,179.3,275.3,179.4,274.7,179.4z"/>
	</g>
</g>
<g class="st55">
	<path class="st56" d="M320.3,92.8c-5.5,8.4-28.4,3-51.1-12S232.5,46.9,238,38.5s28.4-3,51.1,12C311.9,65.5,325.9,84.4,320.3,92.8z"
		/>
</g>
<g>
	<path class="st53" d="M95.7,130.2c-1.1,10.4-10.4,17.9-20.8,16.8S57,136.6,58.1,126.2S81,89.5,81,89.5S96.8,119.9,95.7,130.2z"/>
</g>
<g>
	<path class="st57" d="M98.6,124.4c0,9.4-7.6,17-17,17s-17-7.6-17-17s17-35.1,17-35.1S98.6,115,98.6,124.4z"/>
</g>
<g>
	<path class="st58" d="M83.8,138.2c-9.4,0-17-7.6-17-17c0-7.3,10.3-24.5,14.9-31.7l-0.1-0.1c0,0-17,25.7-17,35.1s7.6,17,17,17
		c6.5,0,12.1-3.7,14.9-9C93.4,135.9,88.9,138.2,83.8,138.2z"/>
</g>
<g>
	<path class="st59" d="M90.2,107.2c5.6,8,7.9,17.7,3.2,25.3c-4.7,7.7-14.1,5.7-14.3,0.9c-0.1-4.8,5.7-3.5,8.8-6
		C91.8,124.4,94.4,116.6,90.2,107.2z"/>
</g>
</svg>
