<?xml version="1.0" encoding="utf-8"?>
<!-- Generator: Adobe Illustrator 24.2.1, SVG Export Plug-In . SVG Version: 6.00 Build 0)  -->
<svg version="1.1" id="Layer_1" xmlns="http://www.w3.org/2000/svg" xmlns:xlink="http://www.w3.org/1999/xlink" x="0px" y="0px"
	 viewBox="0 0 595.3 841.9" style="enable-background:new 0 0 595.3 841.9;" xml:space="preserve">
<style type="text/css">
	.st0{fill:#1F9DD9;}
	.st1{fill:#087BAF;}
	.st2{fill:#75CAEF;}
</style>
<g>
	<path class="st0" d="M318.2,427c0,9.4-7.6,17-17,17s-17-7.6-17-17s17-35.1,17-35.1S318.2,417.6,318.2,427z"/>
</g>
<g>
	<path class="st1" d="M303.4,440.8c-9.4,0-17-7.6-17-17c0-7.3,10.3-24.5,14.9-31.7l-0.1-0.1c0,0-17,25.7-17,35.1s7.6,17,17,17
		c6.5,0,12.1-3.7,14.9-9C313,438.5,308.5,440.8,303.4,440.8z"/>
</g>
<g>
	<path class="st2" d="M309.8,409.8c5.6,8,7.9,17.7,3.2,25.3c-4.7,7.7-14.1,5.7-14.3,0.9c-0.1-4.8,5.7-3.5,8.8-6
		C311.4,427,314,419.2,309.8,409.8z"/>
</g>
</svg>
